<svg version="1.1" id="Layer_1" xmlns="http://www.w3.org/2000/svg" xmlns:xlink="http://www.w3.org/1999/xlink" x="0px" y="0px"
	 width="100%" viewBox="0 0 1024 576" enable-background="new 0 0 1024 576" xml:space="preserve">
<path fill="#000000" opacity="1.000000" stroke="none" 
	d="
M232.822693,260.555847 
	C238.163391,258.348572 243.393326,258.570435 248.490326,259.235382 
	C252.261688,259.727386 254.272400,258.060791 256.466522,255.494812 
	C266.059509,244.276093 277.675720,236.731232 293.011292,236.747421 
	C308.917816,236.764221 320.787994,244.757187 330.734833,256.356171 
	C343.019989,270.681854 346.696686,288.022766 347.161255,306.088745 
	C347.649414,325.070618 347.034271,344.080200 346.959198,363.077911 
	C346.946716,366.239532 347.056427,369.423035 347.430511,372.558167 
	C347.739624,375.148987 348.377838,377.865662 352.784912,375.965424 
	C348.733246,379.639404 349.985992,382.871124 352.232544,386.107941 
	C362.622742,401.078094 376.455383,409.115540 395.113220,407.215942 
	C399.225586,406.797241 403.997131,407.787842 407.243347,405.140411 
	C410.449310,402.525848 409.108307,397.689941 409.982178,393.879578 
	C411.896393,385.532990 416.700562,380.778717 425.327881,378.960999 
	C460.338257,371.584595 494.952087,362.491272 529.790161,354.364655 
	C551.502808,349.299744 561.105347,335.710266 562.571533,313.013000 
	C563.536987,298.067108 568.039551,285.090302 578.593323,274.290924 
	C582.536438,270.256012 586.937134,267.198486 592.355164,265.598328 
	C634.346130,253.196884 676.343689,240.817200 718.308289,228.327087 
	C723.087769,226.904572 726.720581,228.571609 730.282166,231.359833 
	C734.566589,234.713806 737.981750,238.779114 740.077393,243.788925 
	C741.429077,247.020462 743.344421,247.597473 746.330750,246.121750 
	C767.822510,235.501587 780.767883,218.386581 785.325867,194.890549 
	C785.375854,194.632767 785.072998,194.306549 784.806335,193.738541 
	C781.908997,193.040070 779.088013,194.361893 776.217346,194.840866 
	C763.444214,196.972153 750.681030,198.046478 738.295410,193.143021 
	C722.214600,186.776596 711.027405,176.105392 708.644226,158.055145 
	C705.108215,131.273666 729.843933,107.551346 759.312683,118.082657 
	C782.287781,126.293289 793.844910,144.210815 798.257690,167.312546 
	C800.030029,176.591049 799.711792,176.702530 808.919922,175.686111 
	C817.889893,174.695969 826.800659,173.849808 835.635010,176.824265 
	C840.931213,178.607437 845.364746,181.771866 850.305542,185.460327 
	C852.950073,178.353241 854.083435,171.363892 855.678223,164.510910 
	C858.130005,153.975464 860.456299,143.410568 862.951355,132.885544 
	C864.206543,127.590416 865.981812,126.565445 871.243408,128.186676 
	C900.841980,137.306808 930.429626,146.463287 959.994019,155.693588 
	C965.722900,157.482224 966.708313,159.507980 965.089294,164.985291 
	C958.199341,188.293365 951.228394,211.577774 944.442810,234.916107 
	C943.397217,238.512161 941.530457,241.147980 938.508301,243.202805 
	C920.182922,255.662582 901.665649,267.821442 882.728455,279.339722 
	C878.864380,281.690002 875.367737,281.741089 871.531372,279.384033 
	C845.695984,263.511017 819.808044,247.723526 793.977905,231.842010 
	C791.741882,230.467163 789.800659,228.612946 787.728882,226.986435 
	C785.948547,227.691513 785.361633,229.364609 784.468079,230.702576 
	C775.715942,243.807297 764.253662,253.643326 749.577332,259.532532 
	C746.709534,260.683319 745.571350,262.027832 745.854492,265.429047 
	C746.859253,277.498871 742.495117,284.056244 730.953674,287.960571 
	C702.566406,297.563446 674.119141,306.988678 645.708374,316.522339 
	C642.239807,317.686249 638.758789,318.881927 635.434937,320.395477 
	C622.442749,326.311432 616.370361,336.873901 615.276978,350.762543 
	C614.401428,361.884521 613.499268,373.001373 609.236206,383.521362 
	C602.731018,399.574036 592.089172,410.931183 574.792114,415.512482 
	C537.457397,425.400940 499.891144,434.334198 462.319611,443.252563 
	C456.330902,444.674103 450.349091,446.189545 444.291199,447.241882 
	C427.999359,450.071869 416.843414,443.128723 411.866547,427.337585 
	C409.609802,420.177185 409.625854,420.330048 402.221954,421.109528 
	C377.202362,423.743561 356.033691,417.281647 341.384766,395.289520 
	C335.952881,387.134644 333.048676,378.199280 332.799561,368.532196 
	C332.477753,356.044891 332.926147,343.559113 333.352173,331.063202 
	C333.953156,313.436768 334.265930,295.604370 327.781952,278.757782 
	C322.126251,264.063171 312.214294,253.485779 295.897949,250.957916 
	C284.355743,249.169693 275.845886,255.340775 268.236115,263.019714 
	C267.007507,264.259460 266.440491,266.289520 267.364563,267.684601 
	C270.860901,272.963104 272.150665,279.283600 275.557373,284.749908 
	C272.085052,290.730743 272.443115,298.568176 267.230133,304.057434 
	C266.133331,305.212402 266.738708,306.708893 267.714294,307.679596 
	C271.063751,311.012146 269.587982,313.785583 267.093323,316.775055 
	C257.808105,327.901978 248.467392,338.988831 240.089188,350.837280 
	C236.170425,356.379211 232.377045,361.991608 229.297134,367.875885 
	C231.489792,370.614441 234.310837,370.827240 236.780136,371.591919 
	C246.958755,374.744080 257.182526,377.751282 267.401855,380.770630 
	C270.049469,381.552887 272.735443,382.456421 273.087524,385.598999 
	C273.475220,389.059937 271.849792,391.614258 268.660278,393.259918 
	C233.577377,411.361359 198.857025,430.166168 163.362427,447.470978 
	C160.442520,448.894531 157.795074,449.138306 154.774246,447.972046 
	C131.778168,439.093781 108.775131,430.232697 85.729935,421.483032 
	C75.721771,417.683167 70.022812,411.696289 68.126114,400.127228 
	C63.313362,370.771545 56.784767,341.698151 51.005241,312.499481 
	C49.005428,302.396240 50.721298,299.506714 60.822926,296.498535 
	C79.170578,291.034729 97.662682,286.040741 115.925423,280.311737 
	C130.954971,275.596985 146.357071,272.211609 161.274933,267.144287 
	C162.376328,266.770142 163.511215,266.476288 164.649002,266.230499 
	C171.733566,264.699951 173.885422,265.925293 176.306015,273.402893 
	C184.473724,264.128967 195.311447,268.881104 205.011292,267.474030 
	C207.665817,267.088928 209.649887,269.202087 211.453934,270.885254 
	C214.436279,273.667694 216.743958,274.235779 219.354095,270.233093 
	C222.443375,265.495636 227.059158,262.469849 232.822693,260.555847 
M107.463150,425.563354 
	C101.606674,423.137085 95.750198,420.710815 89.893730,418.284546 
	C95.709694,421.421051 101.439583,424.773224 108.501289,426.474365 
	C121.608818,431.578003 134.716354,436.681641 147.823883,441.785278 
	C134.662292,436.217621 121.753868,429.978577 107.463150,425.563354 
M541.526001,355.071075 
	C539.772461,356.117645 537.379150,356.111267 535.900452,358.317963 
	C541.777039,361.711243 545.145081,366.721710 546.837158,372.890289 
	C548.973206,380.677460 546.708435,387.861694 541.367920,390.563171 
	C535.063171,393.752411 527.955750,391.951324 522.716858,385.595184 
	C518.054504,379.938477 515.763855,373.516571 517.273804,366.088715 
	C517.505310,364.949951 517.887512,363.801270 516.066406,362.049255 
	C489.125671,368.506470 461.610291,375.101410 433.796387,381.767914 
	C447.931580,401.472992 451.852081,421.492432 440.403412,444.071014 
	C461.697906,439.019012 481.944153,434.215698 502.299835,429.386414 
	C496.797546,414.482880 501.016052,408.497101 516.222046,408.656860 
	C524.566956,408.744507 532.897156,408.556763 541.173340,407.639526 
	C561.819885,405.351349 581.259949,399.839844 598.134033,386.873627 
	C605.435486,381.263153 609.161499,374.377716 609.800659,365.345947 
	C610.304993,358.218658 610.821777,351.028107 612.212219,344.040588 
	C615.430603,327.867554 625.875854,318.065521 641.399902,313.781799 
	C646.784790,312.295898 649.781189,309.627655 650.661560,304.253632 
	C650.901550,302.788666 651.454468,301.364655 651.955750,299.954529 
	C654.522339,292.734131 656.995178,285.461487 660.959045,278.848419 
	C663.704590,274.268005 667.867554,272.114960 673.188721,272.826752 
	C678.467896,273.532867 681.212219,277.103638 682.635620,281.951935 
	C683.854065,286.101929 683.392212,290.179779 682.281006,294.258942 
	C681.790283,296.060455 680.763489,297.791504 681.150085,300.398224 
	C699.374756,294.178864 717.164734,288.102295 734.959534,282.040039 
	C738.388977,280.871704 739.683960,277.992859 740.619446,274.913574 
	C744.344849,262.651733 738.078247,242.822998 728.128723,234.813187 
	C724.905945,232.218628 721.767700,231.382462 717.562683,232.659607 
	C678.542236,244.511047 639.578247,256.557159 600.236267,267.327271 
	C594.177002,268.986023 588.030029,270.580811 583.260132,275.305573 
	C575.217346,283.272217 569.548279,292.485077 567.752014,303.759399 
	C566.968384,308.678680 566.915894,313.710876 566.231873,318.650269 
	C564.033264,334.526062 557.549072,347.617767 541.526001,355.071075 
M54.746025,312.004822 
	C61.535530,343.057892 66.182121,374.564453 73.713081,406.089691 
	C97.011169,395.216766 119.466866,384.996216 141.575058,373.758545 
	C140.274094,371.403076 138.317215,371.122833 136.701813,370.495575 
	C121.664719,364.657104 121.649315,364.669342 106.495728,370.324646 
	C101.637482,372.137726 96.778870,373.855652 91.458336,373.330933 
	C86.254814,372.817688 82.885139,368.304749 83.823631,363.084167 
	C84.657570,358.445251 88.592628,356.175323 93.754822,357.786194 
	C96.590744,358.671173 99.228943,358.927826 102.032768,357.986481 
	C108.502373,355.814484 114.992371,353.703278 121.465645,351.542114 
	C123.577675,350.836945 125.275261,349.834351 125.961487,347.363831 
	C129.406189,334.962250 136.319199,324.350067 143.621033,313.983185 
	C146.525711,309.859192 149.261169,305.830872 149.389221,300.480591 
	C149.469101,297.142212 150.841751,293.823151 154.489990,293.334259 
	C163.650970,292.106689 166.836288,284.605652 171.094666,278.240540 
	C172.610855,275.974213 173.278244,273.126526 171.382248,270.725250 
	C169.303497,268.092468 166.564880,269.424713 164.027664,270.162445 
	C147.864822,274.862305 131.694168,279.535431 115.538338,284.259247 
	C97.489082,289.536743 79.438324,294.810028 61.417782,300.184265 
	C53.788857,302.459442 53.418530,303.225342 54.746025,312.004822 
M179.838394,275.293457 
	C174.984055,278.764893 172.202194,284.042633 168.418060,288.444763 
	C156.141022,302.726898 144.481094,317.468964 135.311447,334.012756 
	C130.152084,343.321228 130.380173,344.885803 140.538162,347.335876 
	C159.365234,351.876953 175.524323,361.682922 191.761200,371.537628 
	C199.440048,376.198212 206.175293,382.116486 213.204712,387.447083 
	C215.250122,386.506500 215.641006,384.771271 216.430176,383.354553 
	C225.344269,367.351746 234.381744,351.421814 245.886383,337.076202 
	C251.404099,330.195923 257.114929,323.470764 262.718140,316.658813 
	C265.631622,313.116791 265.650818,309.332184 262.374298,308.366730 
	C259.644623,307.562408 256.913757,306.567078 254.112259,305.717102 
	C252.460831,308.621735 254.305374,312.533112 251.708420,314.362671 
	C247.713715,317.176971 243.162094,319.203644 240.358398,324.554047 
	C239.594299,321.200623 242.116867,320.246674 241.843430,318.295288 
	C241.447220,317.196533 240.144974,316.481598 239.526199,316.696381 
	C231.754547,319.394287 226.691696,314.873291 220.470490,311.202972 
	C212.697739,306.617310 210.030609,304.507935 210.950989,295.145660 
	C211.423172,290.342499 212.410538,285.630066 213.717224,280.967163 
	C215.166046,275.797180 210.156937,275.305084 207.574249,273.278046 
	C204.861603,271.149017 203.579025,273.725006 202.178299,275.633820 
	C200.608643,277.772766 198.960754,279.882324 197.126663,281.793243 
	C193.630676,285.435699 190.853119,285.212433 187.775497,281.103088 
	C186.685440,279.647644 185.891708,277.969727 184.968857,276.389771 
	C183.894745,274.550873 182.501419,273.708649 179.838394,275.293457 
M942.976685,227.413605 
	C949.091492,207.017502 955.046265,186.571075 961.438049,166.262131 
	C962.962158,161.419449 961.970032,159.506332 957.192017,158.057587 
	C929.174500,149.562439 901.239014,140.797195 873.264954,132.158325 
	C867.525085,130.385742 866.805908,130.791351 865.447632,136.721146 
	C861.995422,151.791763 858.691345,166.896454 855.202881,181.958527 
	C853.213318,190.548752 854.581604,194.320023 862.674561,197.998688 
	C887.366638,209.222473 912.190613,220.156006 936.915283,231.308746 
	C940.613464,232.976913 942.134155,231.625580 942.976685,227.413605 
M186.836563,427.221771 
	C213.924347,413.604950 241.012115,399.988098 268.099884,386.371277 
	C262.772949,383.357239 257.315491,382.235107 252.504166,379.823730 
	C241.956390,374.537262 232.537125,375.675720 223.668427,383.189941 
	C223.419373,383.400970 223.091064,383.518311 222.800064,383.679962 
	C220.291718,385.073395 218.884232,387.152344 218.714920,390.227356 
	C220.527695,391.792816 222.890228,392.160767 224.985001,393.091522 
	C226.604111,393.811005 228.910065,394.177063 228.917816,396.390503 
	C228.926178,398.775360 226.790710,399.726227 224.801453,400.055115 
	C213.645645,401.899384 202.423431,404.249481 191.116028,402.826385 
	C184.296036,401.968109 178.443329,403.090454 172.429306,406.110229 
	C159.644608,412.529694 146.671265,418.574829 133.744629,424.708893 
	C131.668533,425.694092 129.502182,426.829407 127.056946,425.907196 
	C114.294502,421.093903 101.523895,416.301453 88.792313,411.407654 
	C86.213028,410.416199 84.136688,408.823181 85.664520,405.181091 
	C82.069160,407.019958 82.506149,409.315613 84.610985,411.367859 
	C85.865417,412.590912 87.707596,413.309723 89.396141,413.974182 
	C111.220795,422.562134 133.071411,431.084137 154.897385,439.668732 
	C157.714615,440.776794 160.269913,440.733002 163.015167,439.299927 
	C170.686783,435.295166 178.451218,431.468231 186.836563,427.221771 
M770.266296,140.227646 
	C764.914307,135.631027 759.118652,131.828003 752.218323,129.927582 
	C735.789734,125.402946 721.227417,136.457306 721.320496,153.408310 
	C721.389160,165.900604 730.420105,177.241379 743.755371,181.466202 
	C757.185608,185.721100 770.410706,183.043381 783.608215,180.125153 
	C785.697998,179.663055 786.508606,178.364273 786.254700,176.088257 
	C784.758301,162.677536 780.594116,150.469086 770.266296,140.227646 
M173.180435,388.391296 
	C167.770386,385.130127 162.379242,381.836914 156.939270,378.626404 
	C155.211258,377.606628 153.575790,377.098724 151.366226,378.170319 
	C135.969894,385.637085 120.442314,392.833069 105.037872,400.283447 
	C100.059410,402.691284 94.712143,404.475952 90.038933,407.942627 
	C90.754898,408.534149 91.082275,408.969635 91.513695,409.137054 
	C103.599678,413.827789 115.701698,418.477234 127.784233,423.176788 
	C129.352173,423.786621 130.701111,423.402008 132.081772,422.728394 
	C145.531021,416.166534 159.019531,409.683594 172.414948,403.013641 
	C178.340332,400.063232 178.852539,393.559296 173.180435,388.391296 
M250.822495,297.573547 
	C251.505920,295.663177 252.475174,293.945526 254.103287,292.664764 
	C255.249084,291.763397 256.590454,291.360718 257.788269,292.225677 
	C259.205902,293.249268 258.412964,294.540649 257.820679,295.780396 
	C257.066650,297.358673 255.615952,298.721191 256.146820,301.353973 
	C259.663757,297.586212 258.968842,303.034637 260.812958,303.175385 
	C269.576874,297.756622 271.967529,279.946747 264.955475,272.945984 
	C264.378845,272.370300 263.625977,271.493652 262.993774,271.525513 
	C257.152344,271.820007 252.930252,269.072266 249.299530,264.833344 
	C248.638794,264.061920 247.220551,263.815308 246.098831,263.582428 
	C237.158035,261.726257 227.293884,265.833710 222.136337,273.478607 
	C216.493591,281.842712 214.707153,291.150330 215.447739,301.048218 
	C215.642883,303.656311 216.491165,305.899902 219.912781,306.136993 
	C220.299713,305.288574 220.590744,304.545898 220.965637,303.848328 
	C222.012573,301.900208 220.350037,297.678589 224.089111,298.244659 
	C227.155029,298.708832 225.404510,302.146851 225.294128,304.264557 
	C225.095856,308.069214 227.128906,310.508270 229.852859,312.618011 
	C231.343536,313.772583 232.965195,313.509399 234.589462,312.869843 
	C236.478485,312.126038 236.164185,310.635284 235.978134,309.102722 
	C235.697037,306.787262 235.173965,303.734680 238.250641,303.454315 
	C240.980515,303.205627 241.036957,306.237427 241.201248,308.338928 
	C241.380997,310.637878 241.499466,312.856567 244.631653,312.674744 
	C247.459457,312.510620 248.836609,310.845367 248.751404,308.082306 
	C248.646622,304.684845 249.452637,301.488800 250.822495,297.573547 
M159.919037,356.626434 
	C150.990662,351.978821 140.745270,351.284058 131.878510,346.887329 
	C129.520523,348.833069 128.925964,351.301788 128.128387,353.637054 
	C125.012932,362.759094 125.124092,363.244873 134.172501,365.914368 
	C153.947815,371.748566 171.619476,381.570923 187.506485,394.484344 
	C192.317719,398.395050 196.867203,399.989685 202.945175,399.285126 
	C207.084000,398.805298 209.784714,397.579529 211.211716,393.558075 
	C212.694901,389.378357 209.443619,387.809784 207.144623,385.925720 
	C192.895569,374.248444 176.973190,365.228943 159.919037,356.626434 
M862.806335,233.691589 
	C860.187927,231.179535 855.703491,231.077713 853.907837,227.255966 
	C856.498047,224.982697 858.291321,226.926361 859.970276,227.925034 
	C868.268677,232.861115 876.497620,237.915100 884.714478,242.986694 
	C887.855103,244.925140 890.480347,245.023590 892.687378,241.341721 
	C887.397095,236.118225 879.798035,234.036560 875.137390,228.091309 
	C877.714905,225.974335 879.166199,227.635590 880.602051,228.525452 
	C886.122314,231.946564 891.579895,235.469055 897.051392,238.968567 
	C898.464172,239.872177 899.880066,240.729034 901.612732,240.857498 
	C903.572998,241.002884 905.376648,240.660736 906.215881,238.666763 
	C907.119385,236.520081 905.262939,235.708099 903.945068,234.812653 
	C898.285950,230.967560 892.242004,227.789276 886.193481,224.610992 
	C884.652466,223.801224 881.327209,223.598373 882.703979,220.944946 
	C884.096741,218.260605 886.531921,220.361191 888.310425,221.345856 
	C894.282410,224.652222 900.203613,228.051300 906.117920,231.460541 
	C909.135254,233.199829 911.076965,232.547287 912.258240,228.525497 
	C896.280457,220.133514 880.163513,212.205154 863.702271,205.198914 
	C862.656494,206.811523 863.205688,207.778534 863.420166,208.701660 
	C864.216553,212.129013 863.195374,214.876511 859.844727,215.927109 
	C856.420288,217.000854 853.271118,216.391708 851.490845,212.563232 
	C850.596558,210.639908 850.224548,207.404114 846.823364,208.836853 
	C841.534302,211.064850 837.196777,214.862396 835.901855,220.412781 
	C834.690247,225.606369 837.983215,229.670410 842.320984,232.412994 
	C846.821167,235.258224 851.517334,237.793228 856.126831,240.465576 
	C860.750244,243.145996 864.052673,240.467865 867.565857,238.257629 
	C866.684753,235.780075 864.862244,235.127335 862.806335,233.691589 
M868.157837,271.296143 
	C872.238220,273.945892 875.845337,278.083740 881.519653,274.238159 
	C897.514893,263.398132 914.431580,253.964767 930.061523,242.565659 
	C932.809875,240.561218 936.089722,239.175430 938.663757,235.756409 
	C932.385010,232.806839 926.508667,230.046295 920.026184,227.001007 
	C920.626465,229.838394 922.257629,230.582275 923.416443,231.707840 
	C926.970154,235.159363 927.202698,237.943359 923.931030,241.620605 
	C922.734070,242.965851 921.250977,244.158264 919.690979,245.062469 
	C908.454407,251.575165 897.142517,257.957825 885.899231,264.459015 
	C878.320923,268.840973 870.987488,268.987762 863.259888,264.476501 
	C849.731018,256.578552 836.487976,248.239243 823.385559,239.668549 
	C820.750977,237.945160 818.103394,236.123215 815.868774,233.931778 
	C811.383972,229.533707 812.023865,227.548019 817.999390,226.005493 
	C821.379639,225.132919 824.763977,224.256836 828.091614,223.208160 
	C829.812927,222.665710 831.545532,221.992569 831.534119,219.548218 
	C831.521240,216.782593 829.369507,216.585724 827.591492,215.781448 
	C825.666626,214.910736 823.012939,215.928940 821.226501,213.537231 
	C824.870728,212.197342 827.906006,213.645493 830.939575,214.120758 
	C833.010498,214.445190 834.496338,214.169128 835.771912,212.541550 
	C838.781860,208.701035 842.621094,205.873367 847.023682,203.911011 
	C845.907288,199.242859 843.270081,200.119705 840.478455,201.488007 
	C826.125427,208.522812 811.764709,215.541901 797.433777,222.621353 
	C796.011475,223.324005 794.194153,223.653702 793.369080,226.281723 
	C818.413940,240.425735 842.821899,255.919876 868.157837,271.296143 
M854.478760,255.969299 
	C856.759521,257.345154 859.149048,258.570343 861.302124,260.123230 
	C870.130981,266.491058 878.784668,265.864075 887.832153,260.329468 
	C897.908752,254.165253 908.282471,248.486160 918.541870,242.622070 
	C920.007996,241.784073 921.447693,240.910294 922.307373,239.434235 
	C923.132874,238.016907 924.232117,236.358734 922.416138,234.994507 
	C920.728333,233.726578 919.637695,235.215637 918.738647,236.381668 
	C917.456360,238.044601 916.229797,238.989304 914.575256,237.137131 
	C914.626953,234.849716 918.056213,234.510483 916.873413,231.550797 
	C913.786804,233.309082 911.674683,235.663300 910.535889,238.863937 
	C908.578613,244.365448 905.720642,246.182938 900.435547,244.380096 
	C897.556213,243.397919 895.931335,244.259384 893.859802,246.044891 
	C889.604675,249.712662 884.386169,248.923111 880.282837,244.903091 
	C878.011414,242.677856 875.374451,240.618683 871.740601,239.985901 
	C870.620850,245.145782 876.009766,244.955414 877.626770,247.560898 
	C876.556824,249.283661 874.607971,248.908005 873.362000,250.152161 
	C870.435547,253.074524 862.471252,252.048355 859.973328,248.578995 
	C856.061096,243.145264 849.722778,241.888550 844.531799,238.589966 
	C843.408386,239.980698 842.792114,241.002502 841.938477,241.755173 
	C838.332397,244.934845 839.171265,247.072495 843.178162,249.128769 
	C846.871277,251.024033 850.305359,253.424210 854.478760,255.969299 
M802.036743,216.531403 
	C815.256042,209.878235 828.475342,203.225052 842.132446,196.351532 
	C837.476746,191.287094 832.781250,188.538727 826.787048,188.251266 
	C818.769104,187.866806 810.886475,188.921402 803.028931,190.354431 
	C800.085632,190.891220 798.572876,192.204010 798.090515,195.497253 
	C796.984131,203.050446 795.244629,210.503937 792.098755,217.538666 
	C791.703430,218.422623 791.092590,219.343857 792.265564,220.336975 
	C795.567200,220.072083 798.386047,218.235535 802.036743,216.531403 
M816.903076,230.880737 
	C820.825134,235.334824 826.026245,238.063217 830.904724,241.217834 
	C836.515686,244.846100 838.995422,243.784958 841.056946,236.846252 
	C837.680481,234.194626 834.657288,231.138489 832.543762,227.264008 
	C832.175537,226.588898 831.184753,225.541687 830.854065,225.665009 
	C826.214478,227.395508 820.821350,226.835571 816.903076,230.880737 
M188.655136,275.939270 
	C192.489670,281.130615 195.817734,280.053162 199.588150,272.207336 
	C196.282486,270.605133 192.791397,271.379944 189.462769,271.573303 
	C186.804672,271.727692 187.754379,273.761414 188.655136,275.939270 
M138.126785,379.653564 
	C135.468552,380.995422 132.810303,382.337250 130.152069,383.679077 
	C130.361084,384.072815 130.570114,384.466553 130.779129,384.860260 
	C136.787476,382.080750 142.795807,379.301208 148.804138,376.521667 
	C144.599365,375.118195 142.147644,378.495270 138.126785,379.653564 
M221.463501,394.585114 
	C218.055710,392.897430 215.420486,392.956635 214.432053,397.935120 
	C217.214661,397.739258 219.682709,397.841614 222.013184,397.324249 
	C224.370209,396.800964 223.308701,395.710968 221.463501,394.585114 
z"/>
<path fill="#000000" opacity="1.000000" stroke="none" 
	d="
M244.199219,175.916077 
	C241.880325,196.002365 239.600327,215.635590 237.316635,235.268387 
	C236.785324,239.835938 232.919144,243.993698 227.558807,245.067245 
	C223.084045,245.963425 220.597244,243.086639 218.533646,239.521957 
	C215.064499,233.529343 208.622665,233.624130 204.960754,239.554535 
	C203.494934,241.928436 202.709045,245.229095 198.050171,244.767761 
	C202.505798,240.452698 199.338058,237.384140 197.196564,234.144485 
	C195.035507,230.875259 192.661758,228.776062 188.155396,230.129410 
	C183.729492,231.458603 179.040817,231.905014 174.476700,232.786652 
	C173.132462,233.046295 171.870392,233.250122 170.252136,231.291977 
	C193.997620,206.228470 219.566483,183.043579 244.741989,158.425888 
	C246.316849,164.770935 244.098480,170.087296 244.199219,175.916077 
M227.327103,202.914963 
	C226.884964,202.359085 226.415176,200.860840 225.684082,201.962311 
	C222.605804,206.599930 220.023865,211.515121 218.403580,216.982620 
	C223.609497,219.013840 228.633453,217.177292 234.220078,218.278351 
	C230.569992,222.082199 226.751556,220.881393 223.362854,221.012589 
	C215.187164,221.329117 212.942093,223.161530 211.194336,232.094055 
	C216.285492,232.935516 220.543976,235.389313 223.229401,241.286606 
	C225.538895,234.740097 229.566101,234.509232 234.644714,236.267059 
	C237.088974,214.167892 239.479935,192.550583 241.870911,170.933258 
	C241.529663,170.859772 241.188431,170.786270 240.847198,170.712769 
	C236.751160,178.579880 232.655121,186.446991 228.234222,194.938034 
	C233.070358,191.696823 234.630508,191.592896 236.480164,193.985962 
	C238.629089,196.766220 237.707367,201.121841 234.267883,204.221344 
	C231.785599,206.458252 229.531296,206.328369 227.327103,202.914963 
M180.714828,224.181229 
	C179.290634,225.873962 177.141068,226.985779 176.190628,229.361008 
	C190.284760,229.313370 198.938492,224.250793 201.172943,214.984192 
	C200.175507,213.320145 197.156128,213.155243 197.611282,209.618027 
	C201.613190,211.127731 204.828186,213.383026 208.697861,208.475876 
	C212.524445,203.623352 207.710587,200.915802 207.738342,196.779373 
	C198.895935,205.749374 190.053513,214.719376 180.714828,224.181229 
M206.703232,230.086868 
	C209.443771,218.413483 217.015686,208.939499 221.430725,198.002121 
	C214.045883,205.246078 207.400131,213.055695 201.355087,221.367874 
	C196.117966,228.569168 196.154495,228.603683 201.487289,235.859573 
	C201.742889,236.207367 202.242294,236.375961 202.646179,236.639771 
	C204.636749,235.064850 205.407471,232.838028 206.703232,230.086868 
M227.942978,178.582626 
	C224.678833,181.619217 221.414673,184.655792 218.061249,187.775406 
	C219.378204,189.596542 220.496643,191.143188 222.027466,193.260086 
	C225.580124,187.082779 228.894470,181.319855 232.208801,175.556915 
	C232.041031,175.431808 231.873260,175.306686 231.705490,175.181564 
	C230.618912,176.166550 229.532349,177.151535 227.942978,178.582626 
z"/>
<path fill="#000000" opacity="1.000000" stroke="none" 
	d="
M347.585144,507.799255 
	C340.161133,510.398132 334.967957,508.563995 330.972198,502.051086 
	C329.043854,498.907990 326.554260,495.853424 323.139801,493.544495 
	C320.649170,495.295929 320.424652,498.120636 319.515930,500.495514 
	C318.740906,502.521027 317.361786,503.463409 315.378693,503.457642 
	C313.026031,503.450836 313.071869,501.365540 312.783936,499.834808 
	C311.831177,494.769653 310.956757,489.687836 310.169373,484.594299 
	C309.724731,481.718079 308.374329,480.554901 305.314880,480.112701 
	C295.662048,478.717438 285.840607,478.289886 276.200562,475.774536 
	C279.480438,471.175507 375.675446,438.153900 381.797394,439.297028 
	C382.708221,440.849426 381.822357,442.205139 381.278839,443.562897 
	C373.857117,462.102539 366.254883,480.572357 359.080383,499.206940 
	C356.984497,504.650665 354.160278,508.067657 347.585144,507.799255 
M338.656219,505.438293 
	C343.100677,506.459686 347.170502,505.128326 351.965027,504.000488 
	C350.405243,501.686890 349.733063,499.840912 347.616516,499.010040 
	C344.754089,501.704498 342.757843,505.660889 337.917206,504.235474 
	C337.740204,502.732422 337.530487,500.341400 339.136047,500.440155 
	C343.298401,500.696045 344.461182,496.900543 347.064056,495.222076 
	C350.588440,496.310089 351.584351,500.076294 354.965881,502.100769 
	C362.916992,482.272827 370.708008,462.844208 378.660278,443.013458 
	C375.961823,443.204254 374.584747,444.219849 373.281433,445.202606 
	C357.193848,457.333557 341.146301,469.517609 325.067841,481.660675 
	C323.507751,482.838928 322.493439,484.185974 322.520752,486.232910 
	C322.525269,486.571960 321.937775,486.918945 321.640045,487.244537 
	C319.929138,486.822998 318.926117,485.891510 318.479004,483.847565 
	C330.078827,474.197266 342.436707,465.284424 354.416290,455.839600 
	C341.020294,463.781067 327.624298,471.722565 315.563110,478.872711 
	C311.843567,486.595734 314.683319,492.992371 315.880188,500.051147 
	C317.851074,498.271088 318.279510,496.463959 318.967316,494.790161 
	C321.397247,488.876953 322.647278,488.756897 327.118988,493.470703 
	C330.754852,497.303406 333.269043,502.201782 338.656219,505.438293 
M321.398315,471.920288 
	C321.258484,467.169739 315.006836,468.685760 313.599579,464.094147 
	C317.394897,464.451324 319.936584,466.095886 322.212952,468.214508 
	C323.682526,469.582367 324.932465,470.264801 327.008575,469.085693 
	C339.722809,461.864746 352.183075,454.248627 364.202179,445.916107 
	C355.721924,450.378204 344.229584,449.335083 339.073792,460.045288 
	C338.144897,461.974854 334.818481,462.490295 332.177948,461.834564 
	C329.458069,461.159119 330.872589,458.783447 330.786713,457.062042 
	C314.731567,462.719177 299.138092,468.213654 283.544586,473.708099 
	C288.865082,475.255157 294.205231,475.476135 299.279938,476.752472 
	C307.377380,478.789154 314.344879,476.756775 321.398315,471.920288 
z"/>
<path fill="#000000" opacity="1.000000" stroke="none" 
	d="
M396.974121,326.680237 
	C395.819977,332.551300 396.440430,338.277435 394.199005,343.939545 
	C390.790100,341.822083 389.014435,338.817535 386.918640,336.151520 
	C375.693604,321.872223 365.638550,306.785431 356.158722,291.308594 
	C353.955627,287.711731 352.056000,284.508820 357.946136,281.852478 
	C360.531097,280.686768 362.160370,277.521454 365.824524,278.527679 
	C366.394287,278.684174 367.716553,277.973633 367.888275,277.416626 
	C369.619965,271.799042 373.433716,273.785217 376.642853,275.211090 
	C380.258881,276.817780 382.978455,275.873138 385.751862,273.557343 
	C390.806244,269.337006 395.953430,265.227783 401.725403,261.352692 
	C402.008118,283.253662 398.615295,304.681824 396.974121,326.680237 
M375.980774,283.338684 
	C375.511292,281.454163 377.917328,280.718628 377.774994,278.600983 
	C375.930817,278.171112 374.401825,276.311157 371.768463,277.337280 
	C372.888916,279.983307 373.215454,282.735138 376.108795,284.580444 
	C376.658813,288.187469 379.681305,284.236176 380.935760,286.342743 
	C380.935394,288.896088 376.240173,289.292877 377.831268,293.171417 
	C380.907440,300.669861 383.348846,308.428680 386.398071,317.054749 
	C386.147736,303.280548 382.824219,284.792267 380.161194,281.484131 
	C378.362274,281.639618 377.468628,283.325806 375.980774,283.338684 
M394.677185,325.283661 
	C396.331818,305.707092 398.875214,286.196503 399.761505,265.499268 
	C393.428070,270.576752 388.024261,274.908997 382.800415,279.096954 
	C385.660034,285.407074 390.002136,287.167419 396.485901,282.659393 
	C395.330841,289.956696 389.480011,287.033234 385.732086,289.015900 
	C388.066406,304.274414 389.468658,319.736725 393.346802,335.469330 
	C393.841187,331.956787 394.247528,329.069824 394.677185,325.283661 
M363.223175,283.825684 
	C361.486206,285.284210 358.731201,285.178040 357.169342,288.020111 
	C366.532837,303.657654 376.710938,318.993500 388.679016,333.221771 
	C386.222229,325.568237 383.765442,317.914703 381.124420,309.687195 
	C378.445374,312.349670 376.453369,312.854340 374.427185,309.582611 
	C371.623016,305.054596 372.890350,302.252380 377.922150,300.529419 
	C376.655334,297.523682 376.393494,294.516296 374.506836,292.109314 
	C369.233459,294.864441 369.233459,294.864441 366.372559,294.491089 
	C367.349854,291.250275 372.286835,292.268158 372.699707,288.874115 
	C373.071014,285.821747 371.575562,283.139709 369.733490,280.740204 
	C367.280121,280.912201 365.458862,281.978607 363.223175,283.825684 
z"/>
<path fill="#000000" opacity="1.000000" stroke="none" 
	d="
M825.456848,121.522469 
	C806.550476,118.258965 788.062927,115.078537 769.585571,111.840065 
	C765.667297,111.153305 761.757324,110.371826 757.895752,109.421722 
	C753.763123,108.404930 752.986328,106.509689 755.470337,103.071579 
	C758.876404,98.357231 763.991150,96.261559 769.461426,95.175247 
	C771.551208,94.760239 773.294312,94.587090 772.738770,91.597397 
	C777.012085,93.050148 780.395996,93.389038 783.459839,90.216026 
	C784.954407,88.668282 787.278381,89.716530 789.229736,89.888641 
	C802.032898,91.017899 810.324341,99.793076 818.567200,108.060875 
	C822.250305,111.755051 826.523193,114.507843 830.264648,117.987350 
	C831.641785,119.268112 833.848328,119.849800 834.103271,122.544930 
	C831.186890,123.056252 828.556213,122.032982 825.456848,121.522469 
M794.986328,105.002243 
	C794.986328,105.002243 795.025940,105.030266 794.489868,104.593834 
	C784.733826,99.189529 784.734619,99.190193 777.855286,107.125786 
	C777.765259,107.229645 777.543030,107.218834 777.150024,107.323349 
	C773.443298,103.715881 778.965088,101.876480 779.086060,99.097328 
	C769.652649,95.912666 759.455750,99.312332 757.194092,106.268791 
	C760.468201,107.604706 759.102295,102.648346 761.509827,102.977715 
	C764.051453,104.222206 761.494751,106.791893 762.971985,108.295830 
	C772.674133,110.011162 782.313660,111.690308 791.943176,113.425011 
	C801.402100,115.128998 810.850891,116.889435 820.304138,118.625099 
	C812.046875,113.364906 804.518921,107.154671 794.986328,105.002243 
M798.754822,103.653564 
	C800.600586,104.555977 802.439636,105.484512 805.236633,105.597816 
	C799.914917,99.556320 793.411011,96.446907 787.278137,92.940895 
	C784.224182,91.195023 783.438049,93.884575 782.981995,96.770988 
	C788.223816,98.691345 793.350037,100.597244 798.754822,103.653564 
z"/>
<path fill="#000000" opacity="1.000000" stroke="none" 
	d="
M374.062256,341.656128 
	C374.919708,338.906067 375.466400,336.344574 378.232605,333.773315 
	C378.752014,338.113617 377.574341,340.839539 375.217163,343.083588 
	C374.773804,343.505646 374.106049,342.735809 374.062256,341.656128 
z"/>
<path fill="#000000" opacity="1.000000" stroke="none" 
	d="
M227.548004,465.258606 
	C225.986023,461.464203 227.364426,458.696777 230.758560,455.652313 
	C230.532181,459.741974 230.394470,462.881012 227.548004,465.258606 
z"/>
<path fill="#000000" opacity="1.000000" stroke="none" 
	d="
M236.563049,443.847778 
	C238.043243,443.308838 239.121292,443.681061 238.461380,444.978729 
	C237.248199,447.364410 236.005646,449.923401 232.682938,451.070618 
	C232.408630,447.583496 234.713501,445.991669 236.563049,443.847778 
z"/>
<path fill="#000000" opacity="1.000000" stroke="none" 
	d="
M184.925415,249.151917 
	C186.884796,245.523590 190.278564,245.957993 194.597748,245.869659 
	C191.464844,249.034042 188.372604,249.332825 184.925415,249.151917 
z"/>
<path fill="#000000" opacity="1.000000" stroke="none" 
	d="
M285.535828,420.007690 
	C287.923157,418.781616 289.820465,416.830963 292.895630,418.083649 
	C291.203766,421.161774 288.354919,421.609131 285.516174,421.842712 
	C284.913208,421.892334 284.927490,420.851379 285.535828,420.007690 
z"/>
<path fill="#000000" opacity="1.000000" stroke="none" 
	d="
M177.886353,250.030945 
	C175.070435,251.613297 172.365601,251.479141 169.591919,250.206055 
	C172.279922,248.758301 174.911316,246.830444 177.886353,250.030945 
z"/>
<path fill="#000000" opacity="1.000000" stroke="none" 
	d="
M261.196289,428.204437 
	C262.451874,427.907227 263.456299,427.382080 264.195557,428.966431 
	C261.856323,431.229065 259.099915,432.374573 255.401535,432.362061 
	C256.270752,429.154388 259.048096,429.414520 261.196289,428.204437 
z"/>
<path fill="#000000" opacity="1.000000" stroke="none" 
	d="
M355.653381,266.618011 
	C358.355988,267.612885 360.854218,268.346313 362.676575,271.232452 
	C359.006287,271.483765 356.490723,269.796326 354.239441,268.325134 
	C351.983856,266.851105 353.883759,266.553253 355.653381,266.618011 
z"/>
<path fill="#000000" opacity="1.000000" stroke="none" 
	d="
M277.286896,425.472076 
	C274.928406,426.301270 273.049835,428.172974 270.234070,426.598236 
	C272.073608,423.880707 274.793793,423.387726 277.256073,423.164368 
	C279.112244,422.996033 278.852844,424.336426 277.286896,425.472076 
z"/>
<path fill="#000000" opacity="1.000000" stroke="none" 
	d="
M225.418304,474.148529 
	C225.529282,472.832611 225.570786,471.822662 227.143158,471.605865 
	C228.540253,474.146515 228.533005,476.684540 227.503143,479.631317 
	C224.826065,478.467560 226.001526,476.136902 225.418304,474.148529 
z"/>
<path fill="#000000" opacity="1.000000" stroke="none" 
	d="
M293.122803,515.298828 
	C291.365753,515.951050 289.950043,516.902710 287.935730,515.684143 
	C289.994965,513.190674 292.323425,512.454224 295.030823,512.507812 
	C295.749878,514.458008 294.333344,514.631653 293.122803,515.298828 
z"/>
<path fill="#000000" opacity="1.000000" stroke="none" 
	d="
M146.016724,258.056458 
	C144.139999,258.950073 142.996155,260.699982 140.516998,260.291412 
	C141.767578,256.861847 144.165710,255.591995 147.262115,255.167297 
	C148.113647,256.787872 146.975769,257.213989 146.016724,258.056458 
z"/>
<path fill="#000000" opacity="1.000000" stroke="none" 
	d="
M162.227997,251.706696 
	C159.645340,252.961548 157.293228,254.071075 153.658981,253.395477 
	C156.845978,251.033997 159.054611,248.717651 162.227997,251.706696 
z"/>
<path fill="#000000" opacity="1.000000" stroke="none" 
	d="
M764.837463,88.317787 
	C766.784546,89.040962 768.767761,89.091652 769.748779,91.427292 
	C766.531982,92.198570 764.240295,90.748619 761.791321,89.644234 
	C762.473572,87.697876 763.582703,88.273979 764.837463,88.317787 
z"/>
<path fill="#000000" opacity="1.000000" stroke="none" 
	d="
M299.713745,413.413147 
	C301.656586,412.286041 303.278625,411.194183 305.810486,411.491302 
	C304.543030,414.424957 302.214478,415.370178 299.926575,415.659088 
	C297.863617,415.919586 298.437408,414.600250 299.713745,413.413147 
z"/>
<path fill="#000000" opacity="1.000000" stroke="none" 
	d="
M619.176514,271.950317 
	C619.088440,261.079803 626.286011,258.538849 635.251587,263.190643 
	C643.772827,267.611908 648.915649,280.296692 646.010498,289.432190 
	C643.975159,295.832489 638.150269,298.226166 632.097290,294.736237 
	C623.572937,289.821411 620.097168,281.784943 619.176514,271.950317 
z"/>
<path fill="#000000" opacity="1.000000" stroke="none" 
	d="
M92.305550,316.379211 
	C96.207008,314.001221 98.688766,315.504272 100.206940,318.822449 
	C102.181374,323.137909 103.011307,327.670227 101.081696,332.269684 
	C100.219742,334.324280 98.864258,336.088501 96.406609,336.183319 
	C93.965500,336.277466 92.336502,334.763641 91.474541,332.665009 
	C89.261154,327.276031 88.335564,321.861542 92.305550,316.379211 
z"/>
<path fill="#000000" opacity="1.000000" stroke="none" 
	d="
M162.430313,324.074585 
	C165.456131,321.656982 165.932709,324.784576 166.728302,326.071503 
	C175.844482,340.817108 189.712036,348.752869 205.737778,353.681152 
	C211.383560,355.417389 217.200623,355.031677 223.145859,354.832977 
	C224.061127,357.635040 223.424622,359.250763 220.446579,359.311646 
	C200.657867,359.716003 172.001221,345.664673 163.093719,326.789642 
	C162.744034,326.048645 162.596817,325.212067 162.430313,324.074585 
z"/>
<path fill="#000000" opacity="1.000000" stroke="none" 
	d="
M221.139160,321.160217 
	C225.438904,321.725037 225.806244,324.497772 225.047791,327.462860 
	C223.667068,332.860779 220.444702,336.940704 215.365707,339.427094 
	C213.832428,340.177643 212.225143,340.753601 210.695114,339.550049 
	C209.114334,338.306580 208.624329,336.514526 209.057373,334.629700 
	C210.558929,328.094055 213.809708,323.015259 221.139160,321.160217 
z"/>
<path fill="#000000" opacity="1.000000" stroke="none" 
	d="
M189.894440,304.619690 
	C187.593353,309.523407 185.030060,313.728485 180.351883,316.162170 
	C178.623993,317.061066 176.883041,317.399261 175.246490,316.050751 
	C173.743713,314.812500 173.910095,313.201660 174.341690,311.499542 
	C175.609909,306.498047 178.316116,302.399231 182.292068,299.215637 
	C184.182602,297.701904 186.345749,295.938324 189.014511,297.602356 
	C191.819305,299.351196 190.761002,301.877625 189.894440,304.619690 
z"/>
<path fill="#000000" opacity="1.000000" stroke="none" 
	d="
M889.591187,193.396133 
	C901.855957,198.797714 914.415100,199.169891 927.122803,198.412476 
	C928.440613,198.333923 929.784485,198.110184 931.074219,198.277618 
	C933.021606,198.530457 934.649475,199.540863 934.791992,201.688828 
	C934.941772,203.946838 933.316956,204.997772 931.357422,205.230103 
	C906.660828,208.158127 883.894897,204.719879 866.127014,185.148987 
	C864.221558,183.050140 862.662354,180.681320 861.693604,177.977753 
	C860.925842,175.835175 860.375610,173.546097 862.907776,172.322357 
	C865.237610,171.196411 866.684631,172.956223 867.683044,174.753174 
	C872.594604,183.592773 880.191833,189.255707 889.591187,193.396133 
z"/>
<path fill="#000000" opacity="1.000000" stroke="none" 
	d="
M918.794067,174.045807 
	C919.639343,170.924255 920.554016,168.239868 922.226013,165.936722 
	C923.352722,164.384811 924.949158,163.409103 926.968933,164.103378 
	C928.796814,164.731705 929.260620,166.317703 929.362610,168.078720 
	C929.606567,172.291443 929.167847,176.381317 926.988953,180.092224 
	C925.719910,182.253601 924.260681,184.752228 921.297180,183.901154 
	C918.205627,183.013290 917.881653,180.174896 918.150024,177.370987 
	C918.244324,176.386200 918.523560,175.419144 918.794067,174.045807 
z"/>
<path fill="#000000" opacity="1.000000" stroke="none" 
	d="
M881.049927,156.384766 
	C882.556152,153.426620 884.255737,150.564697 887.542419,151.842072 
	C890.601807,153.031067 890.415833,156.394852 889.922119,159.202026 
	C889.348511,162.464005 888.445068,165.671890 886.550964,168.476639 
	C885.488342,170.050201 884.205444,171.405548 882.067139,170.817322 
	C879.866821,170.212021 878.875061,168.521957 878.778809,166.355026 
	C878.628723,162.977600 879.688293,159.835556 881.049927,156.384766 
z"/>
<path fill="#000000" opacity="1.000000" stroke="none" 
	d="
M162.398346,367.197693 
	C160.622849,368.256989 160.492447,368.394745 159.328537,367.293060 
	C157.845505,365.889313 155.346848,365.447235 154.828812,362.408997 
	C158.208069,362.845856 160.405579,364.585724 162.398346,367.197693 
z"/>
<path fill="#000000" opacity="1.000000" stroke="none" 
	d="
M148.569290,358.053711 
	C149.567047,359.785522 149.700058,361.239685 147.479584,360.123627 
	C145.383636,359.070160 143.032166,357.966583 141.963928,355.060791 
	C144.956512,354.423309 146.397049,356.761261 148.569290,358.053711 
z"/>
<path fill="#000000" opacity="1.000000" stroke="none" 
	d="
M357.498108,473.170349 
	C353.834686,473.555573 352.472809,471.986572 352.752289,468.830750 
	C353.084198,465.083435 358.470642,459.829590 362.156006,459.596191 
	C365.046661,459.413116 365.740387,461.119232 365.061096,463.387543 
	C363.851257,467.427246 361.971497,471.101044 357.498108,473.170349 
z"/>
<path fill="#000000" opacity="1.000000" stroke="none" 
	d="
M338.676300,484.492615 
	C335.828461,482.964996 332.594177,482.796204 330.146545,479.121094 
	C335.238678,479.740417 338.696289,481.981781 342.352203,483.465088 
	C346.149139,485.005615 350.119568,484.860260 354.038635,485.654205 
	C348.852478,489.254272 343.963745,486.408051 338.676300,484.492615 
z"/>
<path fill="#000000" opacity="1.000000" stroke="none" 
	d="
M394.637726,307.355103 
	C393.225037,309.011841 391.840912,309.279327 390.588989,307.932312 
	C388.892395,306.106964 388.463837,303.840790 389.238342,301.486298 
	C389.764374,299.887177 390.767181,298.241425 392.502747,298.100464 
	C394.759338,297.917114 395.661896,299.842590 395.711151,301.714172 
	C395.757660,303.480377 395.167633,305.263275 394.637726,307.355103 
z"/>
<path fill="#000000" opacity="1.000000" stroke="none" 
	d="
M794.964539,104.991524 
	C795.087769,105.061317 795.235718,105.137070 795.377441,105.223015 
	C797.789429,106.685493 802.061035,107.735695 799.888672,111.364265 
	C798.043030,114.447144 794.486145,112.192566 791.848938,110.920135 
	C790.699768,110.365631 789.302368,109.534424 789.635925,107.950012 
	C790.148743,105.513405 792.337097,105.368065 794.659424,105.025574 
	C795.025940,105.030266 794.986328,105.002243 794.964539,104.991524 
z"/>
</svg>